<svg xmlns="http://www.w3.org/2000/svg" width="14.376" height="14.373" viewBox="0 0 14.376 14.373">
  <path id="edit" d="M11.56,2.393a1.006,1.006,0,0,1,1.422,1.422h0L7.215,9.579l-2.133.71L5.793,8.16ZM12.271,1a2.106,2.106,0,0,0-1.489.617L4.923,7.474a.55.55,0,0,0-.133.215l-1.1,3.3a.55.55,0,0,0,.7.7l3.3-1.1a.55.55,0,0,0,.215-.133L13.76,4.593h0A2.106,2.106,0,0,0,12.271,1ZM2.015,1.089A2.015,2.015,0,0,0,0,3.1V13.356a2.015,2.015,0,0,0,2.015,2.015H12.267a2.015,2.015,0,0,0,2.015-2.015V8.962a.55.55,0,1,0-1.1,0v4.394a.915.915,0,0,1-.915.915H2.015a.915.915,0,0,1-.915-.915V3.1a.915.915,0,0,1,.915-.915H6.409a.55.55,0,1,0,0-1.1Z" transform="translate(0 -0.999)" fill="#263854" fill-rule="evenodd"/>
</svg>
